<?xml version="1.0" encoding="UTF-8"?>
<svg width="40" height="40" viewBox="0 0 40 40" xmlns="http://www.w3.org/2000/svg">
    <defs>
        <linearGradient id="bg" x1="0" y1="0" x2="1" y2="1">
            <stop offset="0%" stop-color="#4C7CF6"/>
            <stop offset="100%" stop-color="#2CD3C9"/>
        </linearGradient>
        <radialGradient id="vignette" cx="50%" cy="35%" r="70%">
            <stop offset="60%" stop-color="rgba(0,0,0,0)"/>
            <stop offset="100%" stop-color="rgba(0,0,0,0.18)"/>
        </radialGradient>
        <linearGradient id="shine" x1="0.2" y1="0" x2="0.8" y2="1">
            <stop offset="0%" stop-color="rgba(255,255,255,0.55)"/>
            <stop offset="35%" stop-color="rgba(255,255,255,0.20)"/>
            <stop offset="100%" stop-color="rgba(255,255,255,0)"/>
        </linearGradient>
        <filter id="textShadow" x="-20%" y="-20%" width="140%" height="140%">
            <feDropShadow dx="0" dy="1" stdDeviation="0.8" flood-color="#0A0F1A" flood-opacity="0.35"/>
        </filter>
    </defs>
    <rect x="2" y="2" width="36" height="36" rx="12" fill="url(#bg)"/>
    <rect x="2" y="2" width="36" height="36" rx="12" fill="url(#vignette)"/>
    <path d="M4,9 C10,3 30,3 36,9 L36,12 C30,8 10,8 4,12 Z" fill="url(#shine)"/>
    <g filter="url(#textShadow)" fill="#FFFFFF">
        <path d="M12 27 L12 13 L18.2 13 C21.2 13 23.4 15.0 23.4 17.6 C23.4 20.3 21.3 22 18.2 22 L15.1 22 L15.1 27 Z M15.1 19.6 L18.0 19.6 C19.5 19.6 20.6 18.7 20.6 17.6 C20.6 16.4 19.5 15.5 18.0 15.5 L15.1 15.5 Z"/>
        <path d="M28 13 L31 13 L31 22.8 C31 26.5 28.8 28.8 25.1 28.8 C22.9 28.8 21.1 28.1 19.9 26.9 L21.7 24.9 C22.5 25.7 23.6 26.2 25.0 26.2 C26.9 26.2 28.0 24.9 28.0 22.8 Z"/>
    </g>
</svg>